<svg xmlns="http://www.w3.org/2000/svg" version="1.1" xmlns:xlink="http://www.w3.org/1999/xlink" xmlns:svgjs="http://svgjs.com/svgjs" width="1920" height="1080" preserveAspectRatio="none" viewBox="0 0 1920 1080"><g mask="url(&quot;#SvgjsMask1030&quot;)" fill="none"><rect width="1920" height="1080" x="0" y="0" fill="rgba(0, 19, 45, 1)"></rect><path d="M1153.79 955.02L1202.84 955.02L1202.84 963.98L1153.79 963.98z" stroke="rgba(0, 45, 103, 1)"></path><path d="M1568.04 1003.91L1588.87 1003.91L1588.87 1009.72L1568.04 1009.72z" fill="rgba(0, 45, 103, 1)"></path><path d="M1703.69 79.68L1785.05 79.68L1785.05 161.04L1703.69 161.04z" fill="rgba(63, 0, 77, 1)"></path><path d="M778.95 333.24a47.68 47.68 0 1 0-50.31-81.01z" fill="rgba(0, 45, 103, 1)"></path><path d="M247.06 1147.05a81.96 81.96 0 1 0-40.9-158.73z" stroke="rgba(0, 55, 126, 1)"></path><path d="M1836.74 159.57 a2.18 2.18 0 1 0 4.36 0 a2.18 2.18 0 1 0 -4.36 0z" fill="rgba(0, 45, 103, 1)"></path><path d="M147.82 442.09a56.15 56.15 0 1 0 105.12 39.5z" fill="rgba(0, 55, 126, 1)"></path><path d="M980.62 964.09L1003.09 964.09L1003.09 986.56L980.62 986.56z" fill="rgba(0, 55, 126, 1)"></path><path d="M1595.25 920.28 a76.84 76.84 0 1 0 153.68 0 a76.84 76.84 0 1 0 -153.68 0z" stroke="rgba(0, 45, 103, 1)"></path><path d="M1015.06 640.27L1068.62 640.27L1068.62 693.83L1015.06 693.83z" stroke="rgba(0, 45, 103, 1)"></path><path d="M608.31 263.64a4.52 4.52 0 1 0-4.51 7.83z" stroke="rgba(63, 0, 77, 1)"></path><path d="M755.68 496.49 a79.31 79.31 0 1 0 158.62 0 a79.31 79.31 0 1 0 -158.62 0z" fill="rgba(0, 45, 103, 1)"></path><path d="M1126.92 87.45a5.13 5.13 0 1 0-3.36 9.69z" stroke="rgba(0, 55, 126, 1)"></path><path d="M-12.1 728.04 a76.49 76.49 0 1 0 152.98 0 a76.49 76.49 0 1 0 -152.98 0z" stroke="rgba(63, 0, 77, 1)"></path><path d="M543.26 947.67L626.63 947.67L626.63 964.34L543.26 964.34z" fill="rgba(0, 55, 126, 1)"></path><path d="M813.1 936.48a32.17 32.17 0 1 0 33.41-54.98z" stroke="rgba(63, 0, 77, 1)"></path><path d="M697.63 19.19L762.31 19.19L762.31 114.9L697.63 114.9z" fill="rgba(63, 0, 77, 1)"></path><path d="M632.1 679.41L711.77 679.41L711.77 759.08L632.1 759.08z" fill="rgba(63, 0, 77, 1)"></path><path d="M283.19 973.71a40.65 40.65 0 1 0 40.6 70.44z" fill="rgba(0, 55, 126, 1)"></path><path d="M310.08 740.33L327.62 740.33L327.62 764.81L310.08 764.81z" stroke="rgba(63, 0, 77, 1)"></path><path d="M1195.61 679.62a69.13 69.13 0 1 0-58.83-125.12z" stroke="rgba(0, 45, 103, 1)"></path><path d="M1679.88 233.42a72.52 72.52 0 1 0 100.04 105.02z" stroke="rgba(0, 55, 126, 1)"></path><path d="M193.28 84.45 a90.24 90.24 0 1 0 180.48 0 a90.24 90.24 0 1 0 -180.48 0z" stroke="rgba(0, 55, 126, 1)"></path></g><defs><mask id="SvgjsMask1030"><rect width="1920" height="1080" fill="#ffffff"></rect></mask></defs></svg>